<?xml version="1.0" standalone="no"?>
<!DOCTYPE svg PUBLIC "-//W3C//DTD SVG 20010904//EN"
 "http://www.w3.org/TR/2001/REC-SVG-20010904/DTD/svg10.dtd">
<svg version="1.0" xmlns="http://www.w3.org/2000/svg"
 width="1024.000000pt" height="1024.000000pt" viewBox="0 0 1024.000000 1024.000000"
 preserveAspectRatio="xMidYMid meet">

<g transform="translate(0.000000,1024.000000) scale(0.100000,-0.100000)"
fill="#000000" stroke="none">
<path d="M0 5120 l0 -5120 5120 0 5120 0 0 5120 0 5120 -5120 0 -5120 0 0
-5120z m7806 3102 c23 -12 56 -33 74 -49 37 -31 80 -115 79 -153 -1 -19 -3
-15 -10 13 -12 52 -28 79 -41 71 -7 -4 -8 -3 -4 4 7 11 -22 61 -36 62 -4 0
-14 -8 -23 -17 -16 -16 -17 -15 -13 3 2 10 11 18 19 16 9 -1 7 3 -5 13 -23 18
-40 20 -30 4 4 -8 1 -8 -13 -1 -12 7 -25 7 -34 1 -7 -5 -11 -9 -6 -10 4 -1 10
-2 15 -3 26 -5 44 -36 21 -36 -5 0 -7 5 -4 10 3 6 -3 10 -14 10 -20 0 -25 9
-22 36 1 7 -7 11 -16 10 -11 0 -17 5 -17 17 2 15 -7 17 -65 15 -65 -1 -65 -1
-21 -9 45 -7 44 -7 -11 -5 -60 3 -124 -19 -124 -42 0 -6 -4 -12 -10 -13 -16
-1 -55 -41 -49 -50 9 -16 24 -10 35 14 8 20 9 19 4 -6 -4 -21 -2 -27 6 -21 7
4 9 3 6 -4 -4 -5 -17 -8 -29 -4 -16 4 -19 2 -13 -8 5 -9 4 -11 -4 -6 -6 4 -8
12 -5 18 4 6 1 9 -6 6 -21 -7 -39 -78 -36 -142 4 -77 24 -123 78 -184 42 -48
42 -48 -8 4 -57 58 -84 120 -84 194 0 103 62 203 154 247 45 21 61 24 136 20
60 -3 97 -10 126 -25z m-132 -18 c30 -11 11 -101 -28 -133 -25 -21 -87 -15
-108 10 -32 38 -14 99 36 119 25 10 78 12 100 4z m56 -24 c12 -8 11 -10 -7
-10 -13 0 -23 5 -23 10 0 13 11 13 30 0z m-29 -63 c-10 -9 -11 -8 -5 6 3 10 9
15 12 12 3 -3 0 -11 -7 -18z m86 -9 c3 6 12 12 21 12 13 0 13 -2 -3 -14 -23
-17 -56 -1 -47 22 4 11 8 9 15 -9 5 -14 11 -19 14 -11z m-271 -40 c4 -6 3 -8
-4 -4 -5 3 -13 0 -15 -6 -3 -8 -6 -6 -6 5 -1 19 14 23 25 5z m177 -23 c-3 -9
-8 -14 -10 -11 -3 3 -2 9 2 15 9 16 15 13 8 -4z m-43 -19 c0 -3 -4 -8 -10 -11
-5 -3 -10 -1 -10 4 0 6 5 11 10 11 6 0 10 -2 10 -4z m-190 -10 c0 -2 -8 -10
-17 -17 -16 -13 -17 -12 -4 4 13 16 21 21 21 13z m51 -31 c15 10 10 -2 -8 -16
-9 -8 -14 -9 -10 -3 4 7 0 14 -8 18 -8 3 -15 10 -15 16 0 6 7 4 16 -4 8 -9 20
-14 25 -11z m274 -4 c3 -5 2 -12 -3 -15 -5 -3 -9 1 -9 9 0 17 3 19 12 6z m164
-88 c-11 -33 -56 -113 -65 -113 -1 0 13 30 32 66 19 36 34 75 35 87 0 12 3 16
6 10 2 -7 -1 -30 -8 -50z m-3232 -227 l28 -24 -1 -124 c-1 -68 -9 -174 -18
-236 -21 -145 -21 -206 0 -223 12 -10 19 -10 32 -1 43 31 144 73 210 87 143
30 264 17 390 -41 194 -89 347 -349 327 -557 -10 -107 -52 -324 -74 -390 -88
-255 -280 -420 -594 -511 -136 -39 -295 -59 -422 -53 -129 6 -158 16 -184 57
-50 83 -79 407 -112 1265 -12 322 -7 524 16 602 25 85 96 135 225 159 105 20
145 17 177 -10z m-1751 -77 c56 -14 99 -58 113 -114 6 -24 11 -87 11 -140 0
-104 -15 -156 -49 -174 -24 -13 -134 -36 -252 -51 -47 -6 -91 -15 -98 -19 -9
-6 -4 -35 22 -122 44 -145 91 -353 112 -499 24 -158 17 -421 -14 -535 -71
-268 -246 -440 -500 -491 -116 -23 -341 -15 -456 16 -239 64 -387 193 -458
399 -26 76 -29 94 -25 185 3 84 8 111 31 161 35 75 78 121 142 151 72 34 135
32 177 -5 32 -29 32 -29 35 -137 3 -89 7 -116 28 -162 50 -110 112 -164 206
-182 62 -12 153 1 210 30 52 27 124 112 151 178 20 51 23 73 22 217 0 146 -3
175 -37 335 -42 201 -82 349 -97 364 -7 7 -63 0 -178 -23 -318 -63 -365 -47
-393 130 -13 84 -6 157 20 208 23 43 43 62 96 88 123 62 545 160 815 192 111
13 315 13 366 0z m4459 -289 c56 -8 -83 -5 -247 5 -33 2 -58 -1 -58 -7 0 -5
-5 -6 -12 -2 -7 5 -26 7 -43 7 -29 -1 -29 -1 -5 7 27 10 269 3 365 -10z m-396
5 c-3 -2 -19 -5 -37 -7 -18 -1 -32 -6 -32 -11 0 -4 -5 -5 -11 -2 -15 10 -100
-5 -94 -16 4 -5 11 -7 16 -4 5 4 9 1 9 -4 0 -15 -27 -14 -32 1 -4 10 -16 10
-59 -1 -71 -18 -229 -82 -229 -93 0 -5 9 -4 20 2 16 8 18 8 14 -4 -3 -8 -14
-16 -25 -19 -10 -3 -17 -1 -13 4 3 5 -2 9 -11 9 -11 0 -15 -5 -12 -14 4 -10 0
-14 -14 -11 -10 2 -19 0 -19 -6 0 -5 -7 -9 -16 -9 -14 0 -15 -3 -3 -17 7 -10
10 -15 5 -11 -4 3 -20 -7 -35 -23 -32 -33 -40 -36 -37 -12 2 10 11 18 21 18
10 0 20 6 22 13 3 6 0 12 -6 12 -6 0 -11 -5 -11 -11 0 -5 -4 -8 -9 -5 -12 8
-39 -26 -36 -46 4 -21 -50 -74 -59 -59 -4 6 0 11 8 11 17 0 22 15 7 24 -10 7
-23 -19 -26 -49 -1 -11 -10 -33 -20 -49 -15 -22 -23 -26 -44 -21 -23 6 -24 5
-8 -7 16 -12 15 -18 -24 -94 -27 -53 -42 -97 -45 -130 l-3 -49 9 47 c17 96 78
201 177 309 104 112 239 192 418 245 78 24 109 27 226 28 147 1 169 -6 169
-50 0 -13 -8 -27 -17 -32 -10 -5 -76 -12 -148 -15 -154 -7 -219 -23 -340 -82
-160 -79 -280 -198 -373 -372 -24 -44 -54 -85 -65 -91 -12 -6 -17 -11 -11 -11
19 -2 43 23 77 81 19 32 38 54 42 50 5 -4 5 -1 1 6 -8 13 21 68 31 58 3 -3 0
-14 -8 -23 -11 -15 -10 -15 9 1 17 15 19 21 10 27 -10 6 -8 14 9 31 22 21 23
21 36 4 11 -15 17 -17 33 -7 18 11 18 11 -1 9 -12 -2 -19 2 -17 10 1 8 -2 11
-7 8 -16 -10 -22 11 -7 23 10 8 16 9 21 1 3 -5 12 -10 18 -10 7 0 4 6 -5 14
-25 19 -9 29 18 11 20 -13 21 -12 17 3 -3 12 2 18 17 19 12 1 18 -2 14 -9 -5
-7 -2 -8 7 -2 8 5 17 9 22 10 4 1 8 2 10 3 1 2 12 4 25 7 17 3 21 0 16 -8 -4
-7 7 2 25 20 17 18 29 37 26 42 -3 6 -2 10 4 10 6 0 15 -9 21 -21 10 -17 9
-20 -7 -17 -13 2 -18 -3 -18 -22 0 -15 -6 -25 -14 -25 -8 0 -16 -6 -19 -14 -3
-8 0 -11 7 -7 6 4 11 2 11 -3 0 -6 -6 -11 -12 -11 -19 0 -40 16 -37 26 4 14
-24 15 -43 1 -12 -10 -15 -21 -9 -47 4 -22 10 -30 14 -23 5 7 3 21 -3 32 -6
12 -6 22 -1 26 10 6 26 -13 18 -21 -2 -3 9 -19 24 -35 16 -17 26 -35 23 -40
-9 -16 -24 -10 -24 11 0 13 -5 18 -15 14 -11 -5 -13 -10 -5 -19 5 -6 7 -15 3
-18 -9 -10 30 -8 45 2 7 4 12 12 11 17 -3 20 2 35 11 29 5 -3 7 -12 4 -20 -5
-12 -1 -13 24 -4 17 6 33 17 36 25 3 8 16 14 28 14 23 -1 23 -1 3 -16 -19 -14
-17 -15 21 -11 47 6 134 -12 182 -37 80 -41 159 -141 180 -228 14 -56 16 -161
3 -205 -9 -31 1 -54 14 -33 8 13 25 13 25 -1 0 -5 -4 -8 -9 -4 -6 3 -9 -6 -8
-19 1 -14 7 -25 12 -24 6 2 9 8 7 14 -1 6 4 17 12 23 11 9 15 8 19 -3 4 -10 1
-13 -9 -9 -21 8 -17 -10 6 -30 28 -24 25 -41 -4 -22 -14 10 -27 12 -30 6 -3
-5 0 -12 6 -14 8 -3 6 -6 -4 -6 -12 -1 -18 6 -18 19 0 11 -4 20 -10 20 -5 0
-7 6 -4 14 7 17 -12 31 -21 16 -4 -6 1 -20 11 -31 13 -15 15 -22 6 -31 -11
-11 -17 -1 -13 25 0 4 -4 7 -10 7 -6 0 -8 -7 -5 -16 3 -8 2 -13 -3 -10 -4 3
-13 -6 -19 -19 -9 -20 -9 -23 3 -18 8 3 12 10 9 15 -4 6 -1 9 7 6 8 -2 21 -19
31 -37 21 -43 27 -48 25 -22 -1 11 -5 21 -10 21 -4 0 -5 5 -2 10 3 6 1 10 -4
10 -6 0 -11 4 -11 8 0 14 69 8 75 -7 4 -9 0 -11 -10 -7 -9 3 -13 2 -10 -4 3
-6 1 -10 -5 -10 -24 0 -2 -25 26 -30 21 -4 29 -11 29 -25 0 -11 7 -21 15 -21
31 -3 60 -17 54 -25 -3 -5 0 -8 7 -7 6 2 14 -3 17 -11 3 -9 0 -12 -9 -9 -51
21 -52 21 -47 7 3 -8 14 -15 26 -15 26 -1 54 -23 46 -35 -3 -5 -9 -7 -14 -4
-4 3 -11 -2 -14 -10 -4 -13 -2 -14 14 -5 14 8 20 8 20 0 0 -6 5 -8 12 -4 9 6
9 9 0 12 -7 2 -9 8 -6 14 3 5 -2 16 -12 23 -17 13 -17 14 -2 15 9 0 20 -4 23
-10 3 -5 16 -10 28 -10 14 0 18 3 10 8 -7 5 -9 13 -3 21 9 16 2 42 -14 54 -11
7 9 27 29 27 6 0 3 -5 -5 -10 -13 -9 -13 -11 0 -20 8 -5 20 -8 25 -6 13 5 14
-39 1 -51 -5 -4 -7 -4 -3 2 3 6 -1 19 -8 29 -12 16 -13 13 -10 -27 4 -41 2
-45 -13 -40 -10 4 -6 -5 11 -21 24 -22 27 -29 16 -42 -9 -11 -14 -12 -19 -3
-5 7 -10 8 -14 1 -3 -5 1 -13 10 -16 10 -4 14 -12 10 -23 -6 -15 -4 -14 14 2
11 10 20 13 20 7 0 -7 7 -12 16 -12 8 0 12 -5 9 -10 -4 -6 -11 -8 -16 -5 -5 4
-9 1 -9 -5 0 -7 7 -9 16 -6 9 3 20 6 25 6 4 0 16 14 24 31 13 25 19 28 31 18
8 -6 14 -8 14 -5 0 4 7 1 15 -8 24 -23 18 -42 -6 -20 -15 14 -20 15 -17 4 4
-20 30 -40 42 -33 5 4 6 1 2 -5 -3 -6 -2 -13 3 -16 5 -4 12 2 14 11 4 14 5 13
6 -4 0 -13 -3 -23 -8 -23 -4 0 -6 -12 -3 -26 3 -17 7 -22 12 -14 4 7 13 10 19
6 7 -5 9 -1 5 11 -4 11 3 7 20 -11 14 -16 26 -26 26 -22 0 4 5 4 12 0 8 -5 3
-12 -15 -19 l-28 -11 27 -13 c24 -11 26 -10 14 3 -16 20 -11 20 29 0 24 -12
36 -13 44 -5 15 15 47 14 47 -1 0 -9 4 -8 10 2 13 21 12 12 -5 -35 -8 -22 -14
-34 -15 -26 0 11 -4 10 -16 -5 -15 -18 -15 -18 -10 0 5 13 2 17 -8 13 -19 -8
-28 3 -16 18 7 9 6 14 -3 18 -11 4 -14 -3 -14 -26 0 -18 -3 -41 -7 -52 -5 -13
-3 -12 7 4 10 16 16 20 22 12 4 -7 14 -10 22 -6 9 3 31 3 49 -1 30 -6 34 -10
34 -38 0 -35 7 -49 22 -40 5 3 4 12 -3 20 -11 13 -9 16 18 18 7 1 19 10 28 21
12 16 14 17 9 3 -4 -11 -1 -18 6 -18 6 0 8 -5 4 -11 -4 -8 -9 -7 -15 2 -7 12
-9 12 -9 0 0 -7 -6 -11 -15 -7 -8 3 -15 1 -15 -5 0 -15 43 -28 58 -17 8 7 12
7 12 -1 0 -11 -8 -14 -50 -15 -18 -1 -25 -7 -25 -21 0 -11 -4 -26 -9 -34 -6
-10 -5 -12 5 -9 8 3 13 17 12 32 -2 30 4 33 24 9 8 -10 12 -13 10 -8 -3 6 15
11 46 12 35 1 46 -2 35 -8 -20 -11 -12 -49 11 -49 14 0 14 -2 1 -10 -12 -8
-12 -10 3 -16 9 -3 24 -4 32 0 20 7 19 -3 -2 -26 -15 -17 -15 -20 -3 -28 12
-8 12 -10 -4 -10 -14 0 -17 6 -14 24 3 15 -2 27 -14 35 -10 6 -18 7 -18 2 0
-6 5 -13 11 -17 8 -4 7 -9 -2 -14 -9 -6 -9 -12 4 -24 8 -9 22 -16 31 -16 8 0
18 -5 21 -10 4 -6 11 -7 17 -4 6 4 8 2 5 -3 -4 -6 -16 -13 -27 -16 -18 -5 -19
-3 -8 11 11 14 10 15 -6 9 -13 -5 -24 0 -38 18 -18 23 -21 24 -42 10 -12 -8
-26 -12 -29 -8 -4 3 -7 1 -7 -5 0 -15 23 -15 37 -1 16 16 36 1 30 -22 -3 -11
-4 -19 -4 -19 35 -9 83 -9 111 -2 20 6 36 7 36 2 0 -15 -162 -31 -321 -31
-290 1 -681 46 -1024 117 -476 100 -659 223 -747 504 -19 63 -23 96 -22 200 1
132 30 352 65 488 43 171 159 347 309 469 141 115 404 215 584 222 22 0 37 -1
35 -4z m504 -22 c-7 -2 -21 -2 -30 0 -10 3 -4 5 12 5 17 0 24 -2 18 -5z m-215
-28 c-3 -3 -9 2 -12 12 -6 14 -5 15 5 6 7 -7 10 -15 7 -18z m387 4 c55 -12
102 -23 105 -26 3 -3 -13 -2 -35 2 -185 36 -217 43 -195 44 14 1 71 -8 125
-20z m-762 4 c-7 -2 -19 -2 -25 0 -7 3 -2 5 12 5 14 0 19 -2 13 -5z m180 0
c-7 -2 -21 -2 -30 0 -10 3 -4 5 12 5 17 0 24 -2 18 -5z m491 -39 c3 -8 2 -12
-4 -9 -6 3 -10 10 -10 16 0 14 7 11 14 -7z m233 0 c-3 -3 -12 -4 -19 -1 -8 3
-5 6 6 6 11 1 17 -2 13 -5z m48 -14 c13 -6 15 -9 5 -9 -8 0 -22 4 -30 9 -18
12 -2 12 25 0z m-495 -10 c0 -5 -8 -10 -17 -10 -15 0 -16 2 -3 10 19 12 20 12
20 0z m615 -38 c-3 -3 -11 0 -18 7 -9 10 -8 11 6 5 10 -3 15 -9 12 -12z m56
-17 c19 -8 27 -14 19 -14 -14 0 -72 28 -59 29 4 0 22 -7 40 -15z m-921 -15 c0
-5 -2 -10 -4 -10 -3 0 -8 5 -11 10 -3 6 -1 10 4 10 6 0 11 -4 11 -10z m-3352
-38 c178 -68 324 -247 382 -467 53 -205 42 -479 -29 -680 -46 -130 -190 -292
-315 -354 -285 -140 -597 -65 -758 183 -137 213 -156 641 -38 917 103 242 294
403 508 427 86 9 183 -1 250 -26z m4358 12 c18 -14 18 -14 -6 -3 -31 14 -36
19 -24 19 6 0 19 -7 30 -16z m-1361 -14 c-3 -5 -16 -10 -28 -9 -21 0 -21 1 -2
9 28 12 37 12 30 0z m91 -12 c4 -7 3 -8 -4 -4 -7 4 -12 3 -12 -3 0 -5 -9 -9
-20 -8 -11 1 -20 3 -20 4 0 3 29 16 47 22 1 1 5 -4 9 -11z m-221 -47 c-3 -6
-10 -9 -15 -6 -5 3 -11 1 -15 -5 -4 -6 7 -10 26 -10 22 0 30 -3 23 -10 -7 -7
-21 -7 -43 1 l-33 12 28 18 c29 19 41 19 29 0z m58 -4 c-7 -13 -10 -13 -23 1
-13 14 -12 15 3 9 10 -4 17 -2 17 5 0 6 3 9 6 5 3 -3 2 -12 -3 -20z m53 -24
c-15 -8 -33 -12 -39 -10 -6 2 2 10 18 19 38 18 58 10 21 -9z m-157 -30 c9 -6
20 -9 26 -6 5 4 1 -3 -10 -14 -11 -11 -24 -18 -30 -15 -5 3 -4 7 3 10 10 3 10
7 1 18 -6 8 -15 12 -19 9 -5 -3 -7 3 -5 12 5 28 6 29 12 13 4 -8 13 -20 22
-27z m316 27 c-3 -5 -12 -10 -18 -10 -7 0 -6 4 3 10 19 12 23 12 15 0z m-145
-20 c-24 -15 -36 -11 -14 4 10 8 21 12 24 10 2 -3 -2 -9 -10 -14z m110 6 c0
-2 -8 -10 -17 -17 -16 -13 -17 -12 -4 4 13 16 21 21 21 13z m305 -16 c3 -6 -1
-7 -9 -4 -18 7 -21 14 -7 14 6 0 13 -4 16 -10z m-630 -16 c17 -13 18 -16 5
-24 -17 -11 -28 -13 -53 -10 -10 1 -25 -4 -33 -11 -28 -23 -23 -2 6 26 17 16
30 23 30 17 0 -7 -5 -12 -12 -12 -6 0 -9 -2 -6 -5 3 -4 18 -3 33 1 26 7 27 8
10 20 -11 8 -15 14 -9 14 5 0 18 -7 29 -16z m170 6 c-3 -5 -14 -10 -23 -9 -14
0 -13 2 3 9 27 11 27 11 20 0z m81 -17 c-10 -10 -19 5 -10 18 6 11 8 11 12 0
2 -7 1 -15 -2 -18z m114 7 c0 -5 -5 -10 -11 -10 -5 0 -7 5 -4 10 3 6 8 10 11
10 2 0 4 -4 4 -10z m-34 -22 c4 -7 4 -10 -1 -6 -4 4 -15 2 -24 -5 -14 -11 -14
-10 -2 6 16 20 18 21 27 5z m-201 -8 c3 -6 -1 -7 -9 -4 -18 7 -21 14 -7 14 6
0 13 -4 16 -10z m27 -30 c-20 -19 -33 -14 -14 4 4 4 8 12 8 17 1 5 2 12 3 16
0 4 6 2 13 -5 9 -9 7 -16 -10 -32z m105 23 c-4 -3 -1 -13 6 -21 9 -12 9 -16
-1 -19 -6 -3 -10 -9 -6 -14 7 -11 -7 -11 -24 0 -10 6 -8 10 9 14 18 5 20 9 11
20 -11 12 -7 27 6 27 3 0 2 -3 -1 -7z m-137 -19 c0 -4 -7 -12 -16 -19 -15 -10
-13 -12 14 -13 17 0 36 6 43 14 13 16 29 19 29 4 0 -5 -4 -9 -9 -7 -5 1 -23
-13 -39 -31 -25 -28 -35 -32 -54 -26 -13 4 -32 8 -42 8 -22 1 -62 63 -40 63 7
0 12 -3 12 -6 -1 -3 4 -17 10 -31 6 -14 11 -20 11 -15 1 6 10 11 21 12 11 1
18 -2 15 -8 -4 -5 -1 -9 5 -9 8 0 10 9 6 25 -4 14 -4 30 -1 35 7 11 35 14 35
4z m110 -9 c0 -2 -7 -5 -15 -9 -9 -3 -15 0 -15 9 0 9 6 12 15 9 8 -4 15 -7 15
-9z m100 -31 c0 -8 -5 -12 -10 -9 -6 4 -8 11 -5 16 9 14 15 11 15 -7z m-107
-8 c7 4 4 -1 -5 -11 -20 -22 -32 -16 -21 11 4 11 8 13 11 6 2 -7 9 -9 15 -6z
m67 -2 c0 -8 -5 -12 -10 -9 -6 4 -8 11 -5 16 9 14 15 11 15 -7z m98 -5 c18
-29 11 -30 -15 -2 -12 13 -17 23 -10 23 7 0 18 -9 25 -21z m52 1 c0 -5 -2 -10
-4 -10 -3 0 -8 5 -11 10 -3 6 -1 10 4 10 6 0 11 -4 11 -10z m-80 -15 c5 3 7
-3 6 -12 -4 -28 -21 -25 -22 5 -1 15 1 21 3 14 3 -6 8 -10 13 -7z m114 -3 c3
-5 -1 -9 -9 -9 -8 0 -12 4 -9 9 3 4 7 8 9 8 2 0 6 -4 9 -8z m53 -14 c-3 -8 -6
-5 -6 6 -1 11 2 17 5 13 3 -3 4 -12 1 -19z m-97 -51 c0 -3 -11 0 -24 6 -15 7
-20 14 -14 18 10 6 38 -12 38 -24z m-1060 -134 c1 -37 -76 -493 -83 -493 -5 0
-21 13 -37 28 -40 41 -47 111 -25 260 10 64 24 130 32 145 17 33 113 84 113
60z m1977 -29 c-3 -3 -12 -4 -19 -1 -8 3 -5 6 6 6 11 1 17 -2 13 -5z m-167
-67 c0 -2 -12 -14 -27 -28 l-28 -24 24 28 c23 25 31 32 31 24z m-557 -52 c-3
-9 -8 -14 -10 -11 -3 3 -2 9 2 15 9 16 15 13 8 -4z m507 -8 c0 -2 -10 -12 -22
-23 l-23 -19 19 23 c18 21 26 27 26 19z m-536 -49 c-9 -14 -23 2 -17 18 4 12
8 13 14 3 4 -7 5 -17 3 -21z m140 6 c3 -8 2 -12 -4 -9 -6 3 -10 10 -10 16 0
14 7 11 14 -7z m-108 -26 c4 -7 3 -8 -5 -4 -6 4 -18 2 -26 -4 -9 -8 -15 -8
-15 -2 0 9 15 19 32 21 4 1 10 -4 14 -11z m445 -15 c-12 -20 -14 -14 -5 12 4
9 9 14 11 11 3 -2 0 -13 -6 -23z m-451 -42 c8 12 11 12 22 0 8 -8 8 -11 1 -7
-6 3 -13 1 -15 -6 -7 -19 -28 1 -27 25 2 20 2 20 6 -2 4 -19 7 -21 13 -10z
m57 -23 c-3 -8 -6 -5 -6 6 -1 11 2 17 5 13 3 -3 4 -12 1 -19z m38 12 c3 -5 1
-10 -4 -10 -6 0 -11 5 -11 10 0 6 2 10 4 10 3 0 8 -4 11 -10z m75 -24 c0 -3
-4 -8 -10 -11 -5 -3 -10 -1 -10 4 0 6 5 11 10 11 6 0 10 -2 10 -4z m247 -28
c-3 -7 -5 -2 -5 12 0 14 2 19 5 13 2 -7 2 -19 0 -25z m-372 -27 c0 -6 7 -16
15 -22 12 -9 12 -10 -3 -5 -15 5 -17 2 -11 -16 7 -24 28 -48 41 -48 4 0 9 11
9 25 2 21 -1 24 -12 14 -10 -8 -14 -8 -14 -1 0 6 8 16 18 21 14 7 21 5 30 -9
9 -15 8 -19 -6 -22 -14 -3 -12 -8 12 -31 l28 -26 -26 -13 c-22 -10 -24 -13
-11 -20 8 -5 20 -6 27 -2 6 4 8 3 5 -3 -4 -6 -1 -13 7 -16 7 -3 16 -14 19 -26
4 -17 2 -18 -14 -8 -10 6 -14 14 -9 17 5 3 -10 14 -34 24 -30 12 -43 23 -39
32 3 9 13 12 24 9 14 -5 19 -2 18 12 0 12 -2 14 -6 4 -4 -11 -7 -11 -14 0 -6
10 -13 8 -30 -11 -15 -17 -20 -19 -16 -7 4 11 1 17 -8 17 -8 0 -15 5 -15 11 0
6 -7 9 -15 6 -8 -4 -17 -2 -20 2 -10 18 28 21 47 5 10 -10 21 -15 24 -12 3 3
-6 14 -19 25 -17 13 -22 24 -17 38 4 11 3 28 -2 39 -8 14 -7 17 4 14 7 -3 13
-10 13 -17z m109 -10 c-2 -3 -12 3 -22 13 -16 17 -16 18 5 5 12 -7 20 -15 17
-18z m40 13 c3 -8 2 -12 -4 -9 -6 3 -10 10 -10 16 0 14 7 11 14 -7z m252 -205
c15 -32 33 -64 41 -71 8 -6 19 -21 25 -32 8 -18 6 -17 -14 4 -57 60 -99 169
-97 249 1 41 3 38 10 -23 5 -38 21 -95 35 -127z m-273 151 c-3 -11 -9 -22 -13
-25 -12 -7 -7 29 5 37 14 10 14 10 8 -12z m172 -28 c-3 -3 -11 0 -18 7 -9 10
-8 11 6 5 10 -3 15 -9 12 -12z m-65 -12 c0 -5 -5 -10 -11 -10 -5 0 -7 5 -4 10
3 6 8 10 11 10 2 0 4 -4 4 -10z m-87 -23 c-5 -8 -8 -7 -11 1 -2 7 -9 9 -14 6
-7 -4 -8 -2 -4 4 4 6 13 9 21 6 8 -4 12 -11 8 -17z m-23 -17 c0 -5 -5 -10 -11
-10 -5 0 -7 5 -4 10 3 6 8 10 11 10 2 0 4 -4 4 -10z m160 -4 c0 -3 -4 -8 -10
-11 -5 -3 -10 -1 -10 4 0 6 5 11 10 11 6 0 10 -2 10 -4z m-14 -65 c-10 -15 5
-41 23 -41 14 0 14 -2 1 -10 -9 -6 -17 -5 -21 2 -4 6 -12 7 -18 4 -6 -4 -8
-13 -4 -19 4 -6 8 -22 9 -36 2 -19 1 -21 -9 -10 -7 7 -19 19 -27 27 -8 7 -10
11 -4 8 7 -3 14 3 17 14 3 12 -1 20 -12 23 -9 2 -5 4 9 3 15 -1 25 5 26 14 2
24 4 30 10 30 3 0 3 -4 0 -9z m34 -26 c0 -5 -5 -3 -10 5 -5 8 -10 20 -10 25 0
6 5 3 10 -5 5 -8 10 -19 10 -25z m-60 17 c0 -4 -10 -9 -22 -9 -18 -2 -20 0 -8
7 18 12 30 13 30 2z m85 -42 c3 -5 1 -10 -4 -10 -6 0 -11 5 -11 10 0 6 2 10 4
10 3 0 8 -4 11 -10z m-74 -82 c12 3 12 -5 0 -12 -11 -7 -51 27 -51 44 0 7 9 2
21 -11 12 -13 25 -23 30 -21z m64 24 c-3 -3 -11 0 -18 7 -9 10 -8 11 6 5 10
-3 15 -9 12 -12z m76 -25 c-10 -9 -11 -8 -5 6 3 10 9 15 12 12 3 -3 0 -11 -7
-18z m174 -50 c6 -4 1 -5 -10 -1 -11 5 -29 16 -39 26 -11 10 -23 18 -28 18 -4
0 -8 5 -8 11 0 8 48 -22 85 -54z m-159 7 c-4 -9 -9 -15 -11 -12 -3 3 -3 13 1
22 4 9 9 15 11 12 3 -3 3 -13 -1 -22z m201 -20 c-3 -3 -12 -4 -19 -1 -8 3 -5
6 6 6 11 1 17 -2 13 -5z m-197 -14 c-19 -13 -30 -13 -30 0 0 6 10 10 23 10 18
0 19 -2 7 -10z m289 -6 c10 -9 -55 -3 -69 6 -10 6 -2 7 25 3 22 -3 42 -7 44
-9z m-210 -22 c-1 -15 -2 -15 -6 1 -2 9 -9 14 -15 11 -7 -4 -8 -2 -4 5 10 15
26 4 25 -17z m61 13 c0 -8 -2 -15 -4 -15 -2 0 -6 7 -10 15 -3 8 -1 15 4 15 6
0 10 -7 10 -15z m258 8 c-10 -2 -28 -2 -40 0 -13 2 -5 4 17 4 22 1 32 -1 23
-4z m-358 -25 c0 -4 -4 -8 -9 -8 -6 0 -12 4 -15 8 -3 5 1 9 9 9 8 0 15 -4 15
-9z m71 -50 c10 -7 9 -8 -5 -4 -11 4 -23 1 -27 -6 -4 -7 -12 -9 -16 -4 -4 5
-2 11 5 13 6 3 12 12 12 21 0 14 2 14 9 3 5 -7 15 -18 22 -23z m83 6 c9 -24 2
-26 -12 -4 -7 11 -8 20 -3 20 5 0 12 -7 15 -16z m40 -50 c8 -21 8 -24 -4 -24
-5 0 -10 7 -10 16 0 9 -5 12 -12 8 -7 -4 -8 -3 -4 4 10 17 23 15 30 -4z m-30
-27 c11 -10 10 -15 -1 -25 -7 -7 -13 -11 -14 -10 -12 46 -7 57 15 35z m81 -7
c3 -5 -1 -10 -10 -10 -9 0 -13 5 -10 10 3 6 8 10 10 10 2 0 7 -4 10 -10z
m-2072 -38 c118 -58 180 -159 179 -291 0 -111 -38 -183 -123 -237 -67 -42
-108 -29 -135 43 -33 90 -75 114 -127 72 -38 -29 -58 -105 -64 -244 -7 -157
-3 -162 117 -171 106 -8 144 -23 166 -65 19 -37 30 -140 20 -191 -3 -18 -17
-46 -30 -62 -23 -29 -26 -30 -139 -35 -69 -4 -121 -11 -128 -18 -20 -20 -12
-135 30 -433 23 -157 41 -302 41 -323 0 -86 -69 -177 -154 -202 -134 -40 -256
12 -285 122 -18 71 -23 258 -12 483 17 333 17 350 3 359 -7 4 -36 8 -65 10
-28 1 -63 9 -75 17 -47 31 -66 129 -42 216 15 54 70 98 123 98 23 0 53 7 65
16 20 14 22 23 22 127 1 235 26 380 87 506 80 162 211 244 380 238 67 -3 92
-9 146 -35z m2041 -21 c-7 -9 -34 10 -34 24 0 13 3 12 18 -2 10 -10 17 -20 16
-22z m87 -58 c-8 -15 -10 -15 -11 -2 0 17 10 32 18 25 2 -3 -1 -13 -7 -23z
m59 -34 c0 -6 -4 -7 -10 -4 -5 3 -10 11 -10 16 0 6 5 7 10 4 6 -3 10 -11 10
-16z m60 -8 c0 -5 -7 -12 -16 -15 -14 -5 -15 -4 -4 9 14 17 20 19 20 6z m-25
-50 c-6 -5 -25 10 -25 20 0 5 6 4 14 -3 8 -7 12 -15 11 -17z m90 -49 c-3 -3
-11 0 -18 7 -9 10 -8 11 6 5 10 -3 15 -9 12 -12z m-3600 -53 c127 -47 225
-130 276 -234 63 -129 67 -174 70 -882 3 -711 7 -663 -67 -736 -21 -20 -54
-42 -74 -49 -52 -18 -158 -15 -200 6 -80 42 -100 78 -109 199 l-6 91 -71 -90
c-142 -180 -318 -250 -493 -195 -164 51 -277 187 -317 381 -39 197 30 403 191
566 94 95 185 145 310 171 137 27 273 -6 392 -99 29 -22 59 -38 67 -35 21 8
29 83 24 221 -7 189 -49 256 -161 256 -60 0 -103 -22 -185 -94 -94 -83 -170
-95 -254 -40 -53 34 -78 88 -78 167 0 188 215 382 465 421 56 8 164 -4 220
-25z m3569 15 c3 -8 2 -12 -4 -9 -6 3 -10 10 -10 16 0 14 7 11 14 -7z m81 -24
c-27 -12 -43 -12 -25 0 8 5 22 9 30 9 10 0 8 -3 -5 -9z m-48 -16 c-3 -3 -12
-4 -19 -1 -8 3 -5 6 6 6 11 1 17 -2 13 -5z m-6370 -38 c444 -95 722 -397 822
-894 106 -525 -104 -990 -560 -1236 -285 -154 -649 -206 -839 -120 -169 77
-233 267 -134 400 35 48 96 72 196 80 62 5 92 12 102 23 14 15 11 47 -24 291
-21 151 -50 363 -65 470 -15 107 -34 247 -43 310 l-17 115 -40 3 c-22 1 -64 7
-94 13 -137 27 -205 205 -130 339 57 101 229 184 454 220 81 12 283 5 372 -14z
m4726 -6 c29 -11 65 -32 80 -48 51 -53 57 -100 37 -294 -8 -71 -10 -131 -6
-135 4 -4 51 -7 106 -8 115 0 146 -15 168 -81 28 -80 -9 -240 -66 -284 -22
-18 -41 -20 -152 -20 -161 0 -164 -2 -190 -122 -28 -124 -61 -334 -63 -399 -1
-60 16 -99 53 -119 11 -6 52 -15 92 -20 63 -8 77 -13 100 -40 61 -68 29 -218
-63 -291 -73 -58 -145 -83 -249 -87 -122 -5 -191 18 -260 88 -125 124 -125
294 0 819 17 68 30 140 30 161 l0 37 -52 5 c-64 7 -92 35 -108 111 -12 62 -1
132 30 182 24 38 45 51 99 60 24 4 51 15 61 25 9 9 27 55 39 101 53 204 101
337 127 358 35 28 115 28 187 1z m-2895 -24 c94 -47 127 -113 120 -231 -11
-163 -108 -235 -322 -235 -91 0 -138 -13 -181 -51 -50 -44 -75 -122 -82 -250
-10 -177 12 -307 107 -644 71 -254 77 -293 56 -349 -35 -92 -113 -136 -241
-136 -84 0 -148 27 -181 77 -33 49 -81 301 -143 743 -47 335 -64 519 -65 720
-1 175 0 188 23 238 27 61 62 93 125 117 56 22 136 16 174 -12 38 -27 72 -100
86 -185 7 -39 16 -73 22 -75 5 -1 29 33 53 76 66 121 151 197 246 222 52 14
150 2 203 -25z m5181 -210 c10 -11 8 -22 -5 -48 -11 -19 -20 -66 -23 -113 -6
-77 -7 -80 -31 -80 -38 0 -52 37 -47 127 4 91 23 128 66 128 16 0 34 -6 40
-14z m-1182 -41 c8 -21 -20 -49 -98 -100 -47 -30 -81 -63 -114 -110 -40 -56
-51 -66 -74 -63 -36 4 -38 29 -6 94 33 68 105 140 170 170 58 28 113 31 122 9z
m-462 -445 c-4 -12 -9 -19 -12 -17 -3 3 -2 15 2 27 4 12 9 19 12 17 3 -3 2
-15 -2 -27z m534 -24 c-2 -2 -17 -6 -34 -10 -22 -5 -26 -4 -15 4 14 9 59 15
49 6z m32 -23 c13 -16 12 -17 -3 -4 -10 7 -18 15 -18 17 0 8 8 3 21 -13z
m-115 -28 c-9 -14 -27 -55 -41 -92 -43 -120 -175 -563 -175 -587 0 -41 22 -48
147 -51 164 -4 267 7 294 31 19 17 21 26 15 84 -3 36 -21 151 -40 255 -20 105
-37 206 -40 225 l-5 35 11 -38 c8 -24 16 -36 25 -33 7 3 13 -1 13 -10 0 -8 -4
-12 -10 -9 -14 9 -12 -16 8 -115 10 -47 21 -80 25 -73 4 6 2 23 -5 38 -9 20
-9 28 2 38 10 10 12 9 7 -5 -3 -10 -2 -20 4 -23 5 -4 7 -10 4 -15 -3 -4 4 -10
16 -13 16 -4 19 -2 14 14 -4 11 -2 19 4 19 6 0 11 -4 11 -9 0 -6 9 -9 20 -8
14 1 19 6 15 17 -5 11 -3 12 6 3 6 -6 9 -20 5 -30 -5 -13 -9 -14 -15 -4 -7 10
-10 9 -14 -3 -4 -9 -14 -16 -24 -17 -16 0 -16 -1 2 -9 30 -13 35 -12 28 5 -3
9 -2 15 3 14 5 0 19 2 31 6 18 6 20 11 13 29 -6 17 -4 25 11 34 12 8 19 8 19
2 0 -5 -4 -10 -10 -10 -24 0 -7 -19 26 -30 25 -9 34 -16 30 -27 -4 -11 -2 -13
9 -9 8 3 15 1 15 -4 0 -6 -7 -10 -15 -10 -8 0 -15 -4 -15 -10 0 -5 -5 -10 -10
-10 -6 0 -8 11 -6 25 3 14 1 23 -4 20 -4 -3 -10 1 -13 7 -2 7 -8 9 -13 5 -5
-5 -1 -13 10 -19 15 -8 16 -12 5 -19 -11 -7 -10 -11 6 -23 13 -9 22 -11 26 -4
4 6 11 8 15 5 5 -3 15 1 22 9 7 8 9 14 5 14 -4 0 0 5 10 11 10 6 21 8 24 5 4
-3 1 -6 -5 -6 -7 0 -12 -4 -12 -10 0 -5 9 -10 21 -10 11 0 18 4 15 8 -2 4 -1
14 3 20 10 16 41 5 41 -14 0 -8 9 -18 21 -22 19 -7 19 -9 4 -22 -9 -7 -15 -9
-13 -4 2 5 0 10 -4 12 -5 1 -8 -1 -7 -4 0 -4 -5 -11 -13 -16 -9 -7 -10 -11 -1
-14 8 -4 9 -15 2 -36 -5 -19 -5 -28 0 -22 5 5 11 20 13 34 5 38 48 68 48 34 0
-14 2 -15 17 -3 15 12 16 12 10 -3 -3 -10 -2 -18 3 -18 6 0 10 5 10 11 0 6 7
3 16 -5 18 -19 21 -19 30 -4 4 6 3 8 -3 5 -6 -4 -14 0 -17 8 -3 9 0 18 8 21
10 4 10 16 -1 72 -16 84 -26 158 -20 152 5 -5 67 -321 91 -465 54 -320 96
-653 96 -752 -1 -113 -46 -189 -145 -241 -44 -23 -62 -27 -146 -27 -87 0 -99
2 -136 27 -25 16 -49 44 -62 71 -22 46 -50 173 -71 330 -9 64 -18 95 -34 113
l-21 25 -248 -9 c-227 -7 -249 -9 -267 -28 -14 -14 -28 -62 -50 -178 -51 -263
-85 -337 -174 -377 -82 -37 -224 -16 -292 43 -92 81 -101 184 -40 438 118 490
318 1201 333 1186 3 -3 0 -21 -7 -41 -7 -20 -13 -42 -14 -48 -2 -7 -6 -20 -11
-30 -4 -10 -5 -21 -1 -24 3 -4 6 0 6 7 0 9 5 7 14 -5 14 -19 15 -19 33 -2 19
16 21 16 43 -3 28 -24 36 -25 44 -4 8 21 -2 33 -13 15 -6 -10 -10 -9 -14 3 -5
11 -15 15 -32 12 -25 -5 -34 7 -15 19 8 5 7 11 -1 21 -9 11 -9 14 1 14 9 0 10
3 1 14 -9 10 -8 15 2 19 10 4 14 -3 15 -24 1 -40 8 -47 38 -41 18 3 30 0 36
-12 5 -9 13 -16 19 -16 6 0 7 6 1 16 -10 19 -4 54 9 54 5 0 6 -7 3 -15 -4 -8
-2 -15 4 -15 6 0 12 6 15 13 2 6 8 8 13 4 5 -5 1 -13 -9 -18 -9 -6 -17 -18
-17 -27 1 -13 6 -11 25 11 14 15 25 24 25 20 0 -5 -5 -14 -12 -21 -7 -7 -8
-12 -2 -12 6 0 19 9 29 20 10 12 25 18 32 16 7 -3 15 -1 18 4 4 6 12 10 18 10
7 0 4 -7 -6 -14 -15 -11 -15 -15 -3 -25 11 -9 15 -9 19 1 4 10 6 10 6 0 1 -8
-12 -27 -28 -43 -16 -16 -25 -31 -20 -35 5 -3 9 -10 9 -16 0 -6 -11 -1 -25 12
-17 16 -22 27 -15 35 5 7 6 15 2 19 -4 4 5 5 21 1 25 -7 27 -6 19 16 -13 35
-27 34 -49 -4 -22 -36 -16 -77 11 -77 8 0 19 -8 24 -17 6 -9 17 -18 26 -19 9
-1 14 2 10 7 -3 5 -9 7 -14 4 -16 -10 -5 50 13 70 15 17 17 17 12 3 -4 -11 -2
-18 5 -18 6 0 9 4 5 9 -3 5 -1 12 5 16 5 3 10 4 10 1 0 -2 3 -11 6 -20 4 -11
0 -16 -14 -16 -30 0 -36 -16 -11 -34 12 -8 18 -19 14 -25 -3 -6 -1 -11 4 -11
6 0 11 16 11 35 0 29 3 33 18 28 14 -6 15 -4 5 8 -10 12 -10 18 0 28 9 10 8
11 -8 6 l-20 -7 20 17 c11 9 19 22 17 28 -3 9 0 9 9 0 10 -10 10 -18 1 -38 -7
-15 -8 -24 -2 -20 5 3 10 1 10 -6 0 -21 11 -3 16 27 3 16 9 33 13 39 13 17 40
103 33 109 -3 3 0 6 7 6 8 0 11 6 7 16 -3 8 -2 12 4 9 5 -3 14 4 20 15 6 11
13 20 17 20 3 0 -2 -11 -11 -25z m143 -35 c0 -10 -3 -8 -9 5 -12 27 -12 43 0
25 5 -8 9 -22 9 -30z m-625 15 c-4 -8 -8 -15 -10 -15 -2 0 -4 7 -4 15 0 8 4
15 10 15 5 0 7 -7 4 -15z m1113 -27 c-3 -8 -6 -5 -6 6 -1 11 2 17 5 13 3 -3 4
-12 1 -19z m502 19 c-2 -1 -15 -11 -29 -22 l-25 -20 19 23 c11 12 24 22 29 22
6 0 8 -1 6 -3z m-1476 -34 c-7 -2 -19 -2 -25 0 -7 3 -2 5 12 5 14 0 19 -2 13
-5z m47 3 c0 -3 -4 -8 -10 -11 -5 -3 -10 -1 -10 4 0 6 5 11 10 11 6 0 10 -2
10 -4z m98 -21 c-3 -3 -9 2 -12 12 -6 14 -5 15 5 6 7 -7 10 -15 7 -18z m349
-7 c-3 -7 -5 -2 -5 12 0 14 2 19 5 13 2 -7 2 -19 0 -25z m-555 -25 c3 -13 5
-23 3 -23 -4 0 -35 60 -35 67 0 12 27 -25 32 -44z m1045 25 c-3 -8 -6 -5 -6 6
-1 11 2 17 5 13 3 -3 4 -12 1 -19z m-967 2 c0 -5 -4 -10 -10 -10 -5 0 -10 5
-10 10 0 6 5 10 10 10 6 0 10 -4 10 -10z m70 -14 c0 -15 -24 -16 -37 -1 -4 4
-3 5 4 1 6 -3 14 -2 18 4 9 14 15 12 15 -4z m1319 -32 c-15 -40 -26 -279 -11
-270 6 3 13 -2 16 -12 4 -11 18 -24 31 -30 14 -6 25 -17 25 -23 0 -8 6 -7 18
4 21 18 58 26 61 12 2 -5 7 -18 12 -27 7 -13 6 -18 -3 -19 -7 0 -4 -4 7 -9 27
-12 37 -12 30 -1 -3 5 0 13 7 17 8 5 6 10 -8 15 -17 7 -17 8 3 8 18 1 22 -4
19 -21 -2 -13 1 -28 6 -35 5 -7 5 -14 -2 -18 -5 -3 -10 -1 -10 4 0 6 -7 11
-16 11 -14 0 -15 -2 -3 -17 10 -11 10 -14 2 -9 -7 4 -13 2 -13 -3 0 -15 12
-14 35 3 24 16 57 17 52 2 -2 -6 -13 -10 -23 -8 -15 2 -16 1 -4 -7 8 -5 19 -6
25 -2 5 5 26 12 45 16 32 7 33 6 21 -9 -8 -9 -20 -15 -28 -12 -7 3 -13 2 -13
-3 0 -18 15 -20 37 -6 32 21 53 7 23 -15 l-23 -17 24 1 c13 1 23 7 21 14 -1 7
2 12 8 12 6 0 10 5 10 10 0 6 -7 10 -16 10 -9 0 -18 9 -21 20 -3 11 -9 17 -14
14 -5 -3 -9 0 -9 5 0 6 5 11 11 11 5 0 8 4 5 9 -3 4 1 17 10 27 14 18 15 18 5
-3 -12 -25 0 -39 25 -29 9 3 12 1 9 -4 -3 -6 -13 -10 -21 -10 -18 0 -18 -16 1
-24 8 -3 22 2 30 11 22 21 28 12 28 -42 0 -25 3 -45 7 -45 4 0 7 61 8 136 0
75 3 138 5 140 2 3 7 -235 9 -528 5 -589 4 -600 -55 -659 -49 -50 -109 -72
-196 -72 -91 -1 -137 18 -185 75 -62 71 -63 89 -57 648 5 451 16 717 31 758 7
18 14 31 16 29 3 -2 0 -17 -7 -33z m-1438 3 c-10 -9 -11 -8 -5 6 3 10 9 15 12
12 3 -3 0 -11 -7 -18z m285 4 c0 -12 -6 -17 -18 -13 -13 3 -14 7 -5 18 17 18
23 17 23 -5z m-398 -37 c-1 -32 -2 -34 -17 -18 -11 11 -12 18 -5 21 7 2 9 13
6 25 -3 14 -1 19 6 14 6 -4 11 -23 10 -42z m1145 1 c5 -28 4 -34 -3 -20 -8 19
-14 73 -6 64 2 -2 6 -22 9 -44z m537 35 c12 -7 12 -19 1 -86 -18 -107 -25
-124 -56 -124 -18 0 -26 7 -31 26 -9 35 1 146 15 172 12 23 45 29 71 12z
m-1341 -42 c-8 -14 -14 -17 -22 -9 -7 7 -7 14 1 24 7 8 8 18 4 23 -4 4 1 2 10
-5 14 -10 15 -17 7 -33z m381 -18 c0 -5 -2 -10 -4 -10 -3 0 -8 5 -11 10 -3 6
-1 10 4 10 6 0 11 -4 11 -10z m28 -45 c-3 -3 -9 2 -12 12 -6 14 -5 15 5 6 7
-7 10 -15 7 -18z m-14 -11 c3 -8 10 -12 16 -9 6 3 7 -1 4 -10 -7 -17 -30 -14
-26 4 1 6 -2 11 -8 11 -5 0 -10 5 -10 10 0 16 17 12 24 -6z m-414 -4 c0 -5 -4
-10 -10 -10 -5 0 -10 5 -10 10 0 6 5 10 10 10 6 0 10 -4 10 -10z m564 -6 c3
-8 2 -12 -4 -9 -6 3 -10 10 -10 16 0 14 7 11 14 -7z m1113 -66 c-2 -13 -4 -3
-4 22 0 25 2 35 4 23 2 -13 2 -33 0 -45z m-1287 42 c0 -5 -2 -10 -4 -10 -3 0
-8 5 -11 10 -3 6 -1 10 4 10 6 0 11 -4 11 -10z m70 -5 c0 -8 -4 -15 -10 -15
-5 0 -7 7 -4 15 4 8 8 15 10 15 2 0 4 -7 4 -15z m50 11 c0 -2 -8 -10 -17 -17
-16 -13 -17 -12 -4 4 13 16 21 21 21 13z m317 -38 c-3 -8 -6 -5 -6 6 -1 11 2
17 5 13 3 -3 4 -12 1 -19z m-217 -15 c-12 -8 -24 -12 -27 -9 -4 3 -1 6 5 6 7
0 11 3 11 8 -3 17 2 21 16 15 13 -5 12 -8 -5 -20z m75 -3 c3 -5 1 -10 -6 -10
-7 0 -20 -7 -29 -15 -16 -14 -18 -14 -23 5 -4 17 -2 20 14 15 11 -4 19 -2 19
4 0 14 17 14 25 1z m84 -24 c-3 -3 -11 5 -18 17 -13 21 -12 21 5 5 10 -10 16
-20 13 -22z m31 -17 c0 -5 -4 -7 -10 -4 -5 3 -10 1 -10 -4 0 -6 12 -11 26 -11
14 0 23 4 19 9 -3 5 -1 12 5 16 5 3 10 2 10 -4 0 -5 2 -15 5 -23 4 -9 -3 -12
-22 -11 -61 4 -95 26 -55 36 29 8 32 7 32 -4z m478 -54 c-3 -3 -9 2 -12 12 -6
14 -5 15 5 6 7 -7 10 -15 7 -18z m178 -7 c-9 -12 -16 -19 -16 -15 0 11 24 47
28 42 2 -2 -3 -14 -12 -27z m-621 2 c-22 -8 -47 -2 -40 10 2 4 17 5 32 2 24
-5 25 -6 8 -12z m695 -17 c0 -4 -8 -15 -17 -25 -15 -17 -15 -21 -3 -29 11 -8
8 -8 -10 -3 -22 6 -24 5 -11 -10 8 -9 20 -15 27 -12 7 3 16 1 19 -3 10 -17
-28 -21 -40 -5 -7 11 -17 14 -25 9 -10 -6 -12 -4 -7 9 4 10 7 22 7 27 0 5 3 8
8 8 19 -3 25 2 12 12 -13 8 -12 9 4 7 10 -2 21 3 23 10 3 6 -2 12 -11 12 -9 0
-16 5 -16 10 0 7 6 7 20 0 11 -6 20 -14 20 -17z m60 -3 c-8 -5 -17 -7 -19 -4
-3 3 1 9 9 14 8 5 17 7 19 4 3 -3 -1 -9 -9 -14z m-40 -24 c0 -2 -7 -7 -16 -10
-8 -3 -12 -2 -9 4 6 10 25 14 25 6z m80 0 c0 -11 -19 -15 -25 -6 -3 5 1 10 9
10 9 0 16 -2 16 -4z m-80 -26 c0 -5 -5 -10 -11 -10 -5 0 -7 5 -4 10 3 6 8 10
11 10 2 0 4 -4 4 -10z m-5881 -943 c26 -32 -9 -46 -199 -77 -304 -50 -448 -98
-607 -201 -91 -60 -151 -42 -80 24 120 112 351 197 656 242 187 28 215 29 230
12z"/>
<path d="M7730 8219 c0 -5 5 -7 10 -4 6 3 16 3 23 -2 6 -4 21 -8 32 -10 13 -1
10 3 -10 12 -36 17 -55 19 -55 4z"/>
<path d="M4940 6771 c-95 -29 -180 -110 -205 -194 -18 -61 -20 -251 -4 -329
21 -100 53 -128 148 -128 178 1 348 95 408 226 23 50 25 65 21 147 -4 74 -9
102 -31 143 -31 61 -92 116 -146 132 -42 13 -152 15 -191 3z"/>
<path d="M6355 7030 c-3 -5 -2 -10 4 -10 5 0 13 5 16 10 3 6 2 10 -4 10 -5 0
-13 -4 -16 -10z"/>
<path d="M6508 6848 c-10 -10 -16 -18 -14 -18 2 0 13 -3 23 -6 15 -5 15 -4 3
5 -13 9 -13 11 3 11 9 0 17 4 17 9 0 18 -15 18 -32 -1z"/>
<path d="M6525 6799 c-4 -6 -5 -12 -2 -15 2 -3 7 2 10 11 7 17 1 20 -8 4z"/>
<path d="M6440 6779 c0 -5 5 -7 10 -4 6 3 10 8 10 11 0 2 -4 4 -10 4 -5 0 -10
-5 -10 -11z"/>
<path d="M6694 6781 c-62 -16 -130 -56 -179 -105 -27 -28 -54 -49 -58 -48 -5
1 -6 -2 -2 -7 3 -6 -3 -27 -13 -48 -52 -105 -56 -257 -10 -348 36 -69 102
-133 173 -166 265 -125 548 100 522 416 -9 118 -88 235 -194 286 -51 25 -179
35 -239 20z"/>
<path d="M6543 6735 c0 -8 4 -12 9 -9 5 3 6 10 3 15 -9 13 -12 11 -12 -6z"/>
<path d="M6495 6731 c-3 -5 -2 -12 3 -15 5 -3 9 1 9 9 0 17 -3 19 -12 6z"/>
<path d="M7040 6135 c0 -8 2 -15 4 -15 2 0 6 7 10 15 3 8 1 15 -4 15 -6 0 -10
-7 -10 -15z"/>
<path d="M7115 6119 c-4 -6 -5 -12 -2 -15 2 -3 7 2 10 11 7 17 1 20 -8 4z"/>
<path d="M7193 6115 c0 -7 6 -11 14 -8 7 3 13 6 13 8 0 2 -6 5 -13 8 -8 3 -14
-1 -14 -8z"/>
<path d="M7210 6080 c0 -5 5 -10 11 -10 5 0 7 5 4 10 -3 6 -8 10 -11 10 -2 0
-4 -4 -4 -10z"/>
<path d="M7245 6070 c3 -5 8 -10 11 -10 2 0 4 5 4 10 0 6 -5 10 -11 10 -5 0
-7 -4 -4 -10z"/>
<path d="M7210 6040 c0 -5 5 -10 11 -10 5 0 7 5 4 10 -3 6 -8 10 -11 10 -2 0
-4 -4 -4 -10z"/>
<path d="M7243 6035 c0 -8 6 -16 13 -19 7 -3 10 2 7 15 -6 22 -20 26 -20 4z"/>
<path d="M7180 6015 c0 -8 4 -15 10 -15 5 0 7 7 4 15 -4 8 -8 15 -10 15 -2 0
-4 -7 -4 -15z"/>
<path d="M7210 5980 c0 -11 4 -20 9 -20 5 0 7 9 4 20 -3 11 -7 20 -9 20 -2 0
-4 -9 -4 -20z"/>
<path d="M7380 5969 c0 -5 -7 -9 -15 -9 -8 0 -15 -5 -15 -11 0 -5 4 -8 9 -4 5
3 12 -5 14 -17 4 -20 4 -19 6 5 1 21 6 27 23 27 12 0 18 3 14 7 -10 11 -36 12
-36 2z"/>
<path d="M7021 5929 c-57 -23 -66 -76 -23 -135 91 -125 282 -186 425 -135 168
59 224 155 124 211 -25 14 -30 13 -70 -9 -101 -57 -120 -64 -177 -64 -66 0
-129 31 -175 85 -25 30 -62 58 -75 57 -3 0 -16 -5 -29 -10z"/>
<path d="M7416 5871 c-3 -5 1 -11 9 -14 9 -4 12 -1 8 9 -6 16 -10 17 -17 5z"/>
<path d="M7613 5763 c9 -2 17 -9 17 -14 0 -5 5 -9 10 -9 6 0 10 7 10 15 0 10
-9 15 -27 14 -17 -1 -21 -3 -10 -6z"/>
<path d="M7600 5745 c0 -5 5 -17 10 -25 5 -8 10 -10 10 -5 0 6 -5 17 -10 25
-5 8 -10 11 -10 5z"/>
<path d="M7658 5712 c-3 -11 0 -19 7 -19 7 0 10 8 7 19 -2 10 -6 18 -7 18 -1
0 -5 -8 -7 -18z"/>
<path d="M7784 5710 c0 -11 6 -20 14 -20 7 0 12 8 10 17 -4 24 -24 27 -24 3z"/>
<path d="M7695 5680 c3 -5 11 -10 16 -10 6 0 7 5 4 10 -3 6 -11 10 -16 10 -6
0 -7 -4 -4 -10z"/>
<path d="M7650 5676 c0 -2 9 -6 20 -9 11 -3 18 -1 14 4 -5 9 -34 13 -34 5z"/>
<path d="M7660 5650 c0 -5 5 -10 11 -10 5 0 7 5 4 10 -3 6 -8 10 -11 10 -2 0
-4 -4 -4 -10z"/>
<path d="M7711 5651 c-8 -5 -9 -11 -3 -15 5 -3 12 1 16 9 6 17 6 18 -13 6z"/>
<path d="M7645 5620 c-3 -5 -1 -10 4 -10 6 0 11 5 11 10 0 6 -2 10 -4 10 -3 0
-8 -4 -11 -10z"/>
<path d="M7800 5615 c0 -8 2 -15 4 -15 2 0 6 7 10 15 3 8 1 15 -4 15 -6 0 -10
-7 -10 -15z"/>
<path d="M7834 5616 c-10 -8 -16 -18 -11 -22 4 -4 7 -2 7 5 0 7 4 10 9 7 5 -3
11 1 15 9 7 19 5 19 -20 1z"/>
<path d="M7746 5582 c-3 -5 1 -9 9 -9 8 0 12 4 9 9 -3 4 -7 8 -9 8 -2 0 -6 -4
-9 -8z"/>
<path d="M7780 5585 c0 -2 10 -10 23 -16 20 -11 21 -11 8 4 -13 16 -31 23 -31
12z"/>
<path d="M7976 5503 c4 -16 12 -32 18 -36 6 -5 -2 -6 -19 -3 -16 3 -24 3 -18
0 9 -4 10 -11 3 -24 -7 -13 -6 -20 6 -24 21 -8 24 -8 24 5 0 5 -6 7 -12 3 -10
-5 -10 -3 0 7 10 11 14 11 21 1 5 -8 8 -1 8 18 0 16 -4 30 -9 30 -4 0 -7 3 -7
8 4 21 -2 42 -11 42 -6 0 -8 -11 -4 -27z"/>
<path d="M7947 5513 c-13 -12 -7 -23 11 -22 10 0 12 3 4 6 -6 2 -10 9 -6 14 6
10 0 12 -9 2z"/>
<path d="M7846 5488 c3 -5 10 -6 15 -3 13 9 11 12 -6 12 -8 0 -12 -4 -9 -9z"/>
<path d="M7888 5473 c7 -3 16 -2 19 1 4 3 -2 6 -13 5 -11 0 -14 -3 -6 -6z"/>
<path d="M7903 5453 c-7 -2 -13 -9 -13 -15 0 -7 5 -7 13 1 8 6 17 8 20 4 4 -3
7 -1 7 5 0 13 -7 14 -27 5z"/>
<path d="M7915 5420 c-3 -6 1 -7 9 -4 18 7 21 14 7 14 -6 0 -13 -4 -16 -10z"/>
<path d="M7927 5359 c7 -7 15 -10 18 -7 3 3 -2 9 -12 12 -14 6 -15 5 -6 -5z"/>
<path d="M7970 5335 c-10 -12 -10 -15 4 -15 9 0 16 7 16 15 0 8 -2 15 -4 15
-2 0 -9 -7 -16 -15z"/>
<path d="M7888 5323 c6 -2 18 -2 25 0 6 3 1 5 -13 5 -14 0 -19 -2 -12 -5z"/>
<path d="M3580 6697 c-63 -21 -101 -51 -141 -111 -113 -169 -116 -453 -5 -574
98 -109 276 -67 359 85 59 110 76 290 37 415 -41 134 -154 217 -250 185z"/>
<path d="M4126 4309 c-56 -49 -79 -101 -84 -194 -7 -139 46 -225 140 -225 56
0 136 38 172 81 94 111 91 255 -7 333 -33 27 -48 31 -111 34 -70 4 -74 3 -110
-29z"/>
<path d="M1644 4804 c-4 -15 -1 -63 5 -108 6 -44 23 -162 36 -261 21 -165 31
-257 66 -640 16 -172 19 -179 69 -172 22 3 75 22 117 43 147 73 256 212 293
373 17 73 14 258 -5 351 -18 88 -79 217 -130 277 -85 99 -228 163 -366 163
-76 0 -79 -1 -85 -26z"/>
<path d="M7320 4319 c0 -5 5 -7 10 -4 6 3 10 8 10 11 0 2 -4 4 -10 4 -5 0 -10
-5 -10 -11z"/>
<path d="M7250 4300 c-13 -24 -5 -41 15 -33 8 3 15 0 15 -6 0 -6 5 -11 11 -11
5 0 7 5 3 12 -4 6 2 18 12 26 18 13 18 14 -6 7 -14 -4 -32 -10 -40 -13 -11 -4
-10 1 4 16 11 12 14 22 8 22 -6 0 -16 -9 -22 -20z"/>
<path d="M7160 4285 c-24 -14 -24 -14 -4 -15 12 0 24 7 28 15 6 18 7 18 -24 0z"/>
<path d="M7201 4264 c0 -11 3 -14 6 -6 3 7 2 16 -1 19 -3 4 -6 -2 -5 -13z"/>
<path d="M7517 4256 c-4 -10 -7 -25 -6 -34 0 -11 4 -9 10 7 5 13 8 29 6 35 -2
5 -6 2 -10 -8z"/>
<path d="M7106 4247 c3 -10 9 -15 12 -12 3 3 0 11 -7 18 -10 9 -11 8 -5 -6z"/>
<path d="M7332 4251 c5 -16 35 -24 43 -11 3 4 -2 10 -10 14 -8 3 -15 0 -15 -7
0 -8 -4 -7 -11 3 -8 12 -10 12 -7 1z"/>
<path d="M7156 4241 c-4 -5 3 -7 14 -4 23 6 26 13 6 13 -8 0 -17 -4 -20 -9z"/>
<path d="M7247 4238 c-3 -8 5 -14 20 -14 19 -2 22 1 12 12 -14 17 -25 18 -32
2z"/>
<path d="M7205 4220 c-8 -13 3 -30 18 -30 8 0 7 3 -2 9 -7 5 -10 14 -7 20 4 6
5 11 2 11 -3 0 -8 -4 -11 -10z"/>
<path d="M7381 4201 c-10 -7 -8 -9 10 -8 13 0 33 -3 44 -7 13 -5 11 -2 -5 8
-30 18 -31 18 -49 7z"/>
<path d="M7342 4184 c-7 -8 -8 -14 -3 -14 10 0 25 19 20 25 -2 1 -10 -3 -17
-11z"/>
<path d="M7495 4189 c-4 -6 -5 -12 -2 -15 2 -3 7 2 10 11 7 17 1 20 -8 4z"/>
<path d="M7200 4171 c0 -6 4 -13 10 -16 6 -3 7 1 4 9 -7 18 -14 21 -14 7z"/>
<path d="M7395 4160 c-3 -6 1 -7 9 -4 18 7 21 14 7 14 -6 0 -13 -4 -16 -10z"/>
<path d="M7350 4146 c0 -2 7 -7 16 -10 8 -3 12 -2 9 4 -6 10 -25 14 -25 6z"/>
<path d="M8168 4118 c-2 -19 -9 -23 -34 -21 -28 2 -31 0 -26 -22 5 -28 -12
-34 -26 -9 -8 14 -10 13 -15 -5 -3 -12 -1 -19 4 -15 6 3 21 -2 34 -10 15 -10
25 -12 25 -6 0 6 5 8 10 5 8 -5 7 -12 -2 -23 -12 -15 -11 -16 6 -2 17 14 17
15 -3 31 -12 10 -21 25 -21 34 0 12 9 6 30 -20 17 -21 30 -33 30 -27 0 6 -7
17 -15 26 -19 19 -19 26 1 26 8 0 12 5 9 10 -3 6 -1 10 4 10 13 0 14 27 2 35
-5 3 -11 -5 -13 -17z"/>
<path d="M7970 4121 c0 -5 7 -12 16 -15 8 -3 13 -2 9 3 -3 5 1 12 7 14 7 3 3
6 -9 6 -13 1 -23 -3 -23 -8z"/>
<path d="M7900 4090 c0 -5 4 -10 9 -10 6 0 13 5 16 10 3 6 -1 10 -9 10 -9 0
-16 -4 -16 -10z"/>
<path d="M7943 4085 c0 -8 6 -15 13 -15 7 0 17 -7 22 -16 8 -15 10 -15 15 0 4
10 3 15 -3 11 -6 -3 -10 4 -10 17 0 18 -2 20 -10 8 -6 -10 -10 -11 -10 -2 0 6
-4 12 -8 12 -5 0 -9 -7 -9 -15z"/>
<path d="M7867 4084 c8 -3 10 -18 8 -37 l-5 -32 10 29 c10 32 6 46 -13 45 -9
0 -9 -2 0 -5z"/>
<path d="M7455 4060 c-3 -5 -1 -10 4 -10 6 0 11 5 11 10 0 6 -2 10 -4 10 -3 0
-8 -4 -11 -10z"/>
<path d="M8223 4045 c-3 -9 -3 -18 -1 -21 3 -3 8 4 11 16 6 23 -1 27 -10 5z"/>
<path d="M8032 4030 c0 -14 2 -19 5 -12 2 6 2 18 0 25 -3 6 -5 1 -5 -13z"/>
<path d="M7959 4033 c0 -5 -2 -16 -4 -25 -2 -10 0 -18 5 -18 4 0 8 11 8 25 0
22 -7 36 -9 18z"/>
<path d="M8251 4024 c0 -11 3 -14 6 -6 3 7 2 16 -1 19 -3 4 -6 -2 -5 -13z"/>
<path d="M8265 3995 c-14 -14 -25 -31 -25 -37 0 -7 7 -3 15 8 13 16 14 16 9 2
-3 -10 -1 -18 5 -18 6 0 10 3 10 8 -1 4 -1 16 0 27 1 15 4 16 13 7 7 -7 17
-12 23 -12 5 0 1 6 -10 12 -19 11 -19 11 0 19 17 6 17 8 3 8 -9 1 -29 -10 -43
-24z"/>
<path d="M8170 3972 c0 -12 19 -26 26 -19 2 2 -2 10 -11 17 -9 8 -15 8 -15 2z"/>
<path d="M8006 3953 c-6 -14 -5 -15 5 -6 7 7 10 15 7 18 -3 3 -9 -2 -12 -12z"/>
<path d="M8225 3920 c-3 -6 1 -7 9 -4 18 7 21 14 7 14 -6 0 -13 -4 -16 -10z"/>
<path d="M8300 3920 c0 -5 7 -7 15 -4 8 4 15 8 15 10 0 2 -7 4 -15 4 -8 0 -15
-4 -15 -10z"/>
<path d="M8355 3900 c3 -5 8 -10 11 -10 2 0 4 5 4 10 0 6 -5 10 -11 10 -5 0
-7 -4 -4 -10z"/>
<path d="M8680 4003 c1 -67 3 -84 11 -70 6 10 8 25 5 34 -5 11 -2 14 11 9 17
-6 17 -5 1 8 -20 15 -23 26 -7 26 15 0 41 -28 35 -38 -2 -4 4 -8 14 -8 14 0
16 4 10 16 -7 13 -4 16 13 16 13 -1 21 4 19 12 -1 8 2 11 7 8 5 -4 12 -2 16 4
4 6 11 8 16 5 5 -3 6 1 3 10 -5 12 -9 13 -20 4 -8 -6 -14 -8 -14 -5 0 4 -9 2
-20 -4 -16 -8 -22 -8 -26 4 -3 8 -19 20 -35 26 -16 7 -26 16 -23 21 3 5 0 9
-5 9 -7 0 -11 -32 -11 -87z m51 27 c20 0 26 -15 10 -24 -5 -3 -14 1 -21 9 -7
8 -16 12 -21 9 -11 -6 -12 10 -2 20 4 4 9 2 11 -3 2 -6 12 -11 23 -11z"/>
<path d="M8813 3995 c-7 -7 -8 -17 -2 -26 6 -10 9 -10 9 -1 0 6 5 12 10 12 6
0 10 -7 10 -15 0 -8 4 -15 8 -15 4 0 8 9 8 19 0 25 -28 42 -43 26z"/>
<path d="M9096 3951 c-13 -5 -16 -10 -8 -15 6 -3 9 -13 5 -21 -3 -8 -3 -15 0
-15 3 0 10 14 16 30 5 17 9 30 8 29 -1 0 -11 -4 -21 -8z"/>
<path d="M8770 3935 c0 -8 2 -15 4 -15 2 0 6 7 10 15 3 8 1 15 -4 15 -6 0 -10
-7 -10 -15z"/>
<path d="M8710 3930 c0 -6 7 -10 15 -10 8 0 15 2 15 4 0 2 -7 6 -15 10 -8 3
-15 1 -15 -4z"/>
<path d="M8840 3924 c0 -8 5 -12 10 -9 6 4 8 11 5 16 -9 14 -15 11 -15 -7z"/>
<path d="M8886 3915 c4 -8 10 -15 15 -15 4 0 6 7 3 15 -4 8 -10 15 -15 15 -4
0 -6 -7 -3 -15z"/>
<path d="M8960 3921 c0 -5 -8 -17 -17 -27 -13 -13 -14 -16 -3 -12 8 3 21 -2
28 -11 11 -14 12 -13 3 6 -6 12 -8 29 -5 37 3 9 3 16 0 16 -3 0 -6 -4 -6 -9z"/>
<path d="M8758 3903 c7 -3 16 -2 19 1 4 3 -2 6 -13 5 -11 0 -14 -3 -6 -6z"/>
<path d="M8866 3895 c4 -8 11 -15 16 -15 6 0 5 6 -2 15 -7 8 -14 15 -16 15 -2
0 -1 -7 2 -15z"/>
<path d="M9087 3863 c-4 -3 -7 -11 -7 -17 0 -6 5 -5 12 2 6 6 9 14 7 17 -3 3
-9 2 -12 -2z"/>
<path d="M9116 3862 c-2 -4 -1 -14 4 -22 7 -11 9 -9 7 8 -1 24 -3 26 -11 14z"/>
<path d="M8856 3848 c3 -5 10 -6 15 -3 13 9 11 12 -6 12 -8 0 -12 -4 -9 -9z"/>
<path d="M9016 3845 c4 -8 11 -15 16 -15 6 0 5 6 -2 15 -7 8 -14 15 -16 15 -2
0 -1 -7 2 -15z"/>
<path d="M8956 3842 c-3 -5 1 -9 9 -9 8 0 12 4 9 9 -3 4 -7 8 -9 8 -2 0 -6 -4
-9 -8z"/>
</g>
</svg>
